<?xml version="1.0" standalone="no"?>
<!DOCTYPE svg PUBLIC "-//W3C//DTD SVG 1.1//EN" "http://www.w3.org/Graphics/SVG/1.1/DTD/svg11.dtd" >
<svg xmlns="http://www.w3.org/2000/svg" xmlns:xlink="http://www.w3.org/1999/xlink" version="1.1">
<metadata></metadata>
<defs>
<font id="strasuaregular" horiz-adv-x="1644" >
<font-face units-per-em="2048" ascent="1638" descent="-410" />
<missing-glyph horiz-adv-x="454" />
<glyph horiz-adv-x="0" />
<glyph unicode="&#xd;" horiz-adv-x="454" />
<glyph unicode=" "  horiz-adv-x="454" />
<glyph unicode="&#x09;" horiz-adv-x="454" />
<glyph unicode="&#xa0;" horiz-adv-x="454" />
<glyph unicode="!" horiz-adv-x="405" d="M72 125q0 61 39 95t92 34t93 -34t40 -95t-40 -96t-93 -35t-92 35t-39 96zM72 1473h256l-41 -1035h-174z" />
<glyph unicode="&#x22;" horiz-adv-x="741" d="M82 1100v450h215l-82 -450h-133zM461 1100v450h215l-82 -450h-133z" />
<glyph unicode="#" horiz-adv-x="1075" d="M43 618v185h227v231h-227v185h227v254h172v-254h189v254h172v-254h227v-185h-227v-231h227v-185h-227v-251h-172v251h-189v-251h-172v251h-227zM442 803h189v231h-189v-231z" />
<glyph unicode="$" horiz-adv-x="1138" d="M47 1067q0 86 33 159.5t93 129t145 86.5t188 31v108h156v-108h333v-256h-333v-306q94 -10 173.5 -49t136 -99.5t88.5 -139t32 -168.5t-31 -168t-88.5 -137.5t-136 -97.5t-174.5 -48v-113h-156v109h-420v256h420v403q-102 0 -187.5 31t-145.5 85t-93 129t-33 163z M330 1065q0 -68 49 -109t127 -41v302q-82 0 -129 -45.5t-47 -106.5zM662 262q94 18 146 74.5t52 124.5t-50 122t-148 70v-391z" />
<glyph unicode="%" horiz-adv-x="1597" d="M61 1096q0 86 30 155.5t80 118.5t115.5 76t137.5 27q70 0 135.5 -27t115.5 -76t79.5 -118.5t29.5 -155.5q0 -84 -28.5 -153t-77.5 -118t-114.5 -76.5t-139.5 -27.5t-140.5 27.5t-115.5 76.5t-78 118t-29 153zM152 0l1124 1473h170l-1118 -1473h-176zM227 1098 q0 -29 19.5 -51.5t50.5 -39t68.5 -24.5t72.5 -8q29 0 60.5 7t58.5 22.5t44 38t17 53.5q0 27 -19 49t-49 38.5t-67.5 25t-74.5 8.5q-29 0 -60 -7.5t-58.5 -23t-45 -38t-17.5 -50.5zM811 377q0 82 28.5 151.5t78 118.5t114.5 77t139 28q76 0 141.5 -28t115 -78t78 -118.5 t28.5 -150.5q0 -86 -29.5 -155.5t-79 -119t-115 -76t-139.5 -26.5q-72 0 -136 26.5t-114.5 76t-80 119t-29.5 155.5zM977 377q0 -29 18.5 -51.5t49 -38t68.5 -23.5t75 -8q27 0 59.5 8t59 23.5t45 37t18.5 50.5q0 27 -19.5 49t-49 38.5t-67.5 26t-75 9.5q-29 0 -60.5 -8.5 t-59 -23.5t-45 -37.5t-17.5 -51.5z" />
<glyph unicode="&#x26;" horiz-adv-x="1206" d="M61 428q0 45 12.5 93t38 91t62.5 77t86 52q-78 45 -116 133.5t-38 180.5q0 94 36 172t104.5 133t170 85t232.5 30h49v-256h-90q-135 0 -196.5 -47.5t-61.5 -133.5q0 -78 62.5 -130t195.5 -52h131v184h242v-184h182v-256h-182v-342h182v-256h-514q-131 0 -239.5 24.5 t-185.5 77t-120 133t-43 191.5zM309 428q0 -92 84 -131t215 -39h131v342h-131q-131 0 -215 -40t-84 -132z" />
<glyph unicode="'" horiz-adv-x="356" d="M80 1100v450h194l-81 -450h-113z" />
<glyph unicode="(" horiz-adv-x="505" d="M63 238v987q0 260 106.5 380.5t291.5 131.5v-172q-106 -4 -170 -82t-64 -217v-1069q0 -123 57.5 -203t176.5 -86v-172q-86 8 -159 44t-126 99.5t-83 153.5t-30 205z" />
<glyph unicode=")" horiz-adv-x="507" d="M45 -92q119 6 176.5 86t57.5 203v1069q0 139 -63.5 217t-170.5 82v172q184 -10 290.5 -131t106.5 -381v-987q0 -115 -29.5 -205t-83 -153.5t-126 -99.5t-158.5 -44v172z" />
<glyph unicode="*" horiz-adv-x="860" d="M20 981l218 199l-70 284l256 -145l250 154l-60 -287l226 -191l-293 -32l-113 -273l-121 268z" />
<glyph unicode="+" horiz-adv-x="821" d="M29 618v256h258v250h256v-250h248v-256h-248v-270h-256v270h-258z" />
<glyph unicode="," horiz-adv-x="407" d="M57 -129l62 451h256l-144 -451h-174z" />
<glyph unicode="-" horiz-adv-x="966" d="M82 618v256h801v-256h-801z" />
<glyph unicode="." horiz-adv-x="425" d="M80 125q0 61 39 95t92 34t92 -34t39 -95t-39 -96t-92 -35t-92 34.5t-39 96.5z" />
<glyph unicode="/" horiz-adv-x="849" d="M6 -2l719 1475h119l-709 -1475h-129z" />
<glyph unicode="0" horiz-adv-x="1462" d="M59 752q0 160 46.5 292t130 227t201.5 148.5t261 53.5h66q143 0 261 -53.5t202 -148.5t130 -227.5t46 -291.5q0 -158 -47 -295.5t-131 -238.5t-202 -159.5t-259 -58.5h-66q-141 0 -258.5 58.5t-201.5 159.5t-131.5 238.5t-47.5 295.5zM324 731q0 -104 27.5 -191 t77.5 -149.5t119.5 -98.5t153.5 -36h58q84 0 153.5 36t119.5 98.5t78 149.5t28 191q0 106 -29 195.5t-79 154t-119.5 100.5t-151.5 36h-58q-82 0 -151.5 -36t-119.5 -100.5t-78.5 -153.5t-28.5 -196z" />
<glyph unicode="1" horiz-adv-x="663" d="M20 1217v256h76q242 0 369 -138.5t127 -380.5v-954h-254v954q0 262 -242 263h-76z" />
<glyph unicode="2" horiz-adv-x="1228" d="M78 0v467q0 96 37 178t104.5 142.5t159.5 94t203 33.5h123q78 0 127 43t49 107q0 61 -47.5 106.5t-128.5 45.5h-592v256h592q100 0 185 -31t144.5 -85t93 -129t33.5 -161q0 -88 -33.5 -163t-93 -129t-144.5 -85t-185 -31h-123q-129 0 -201 -56t-72 -136v-211h821v-256 h-1052z" />
<glyph unicode="3" horiz-adv-x="1046" d="M82 2v256h356q131 0 215 44t84 136t-57 137.5t-141 45.5h-177v256h177q84 0 131 42t47 130q0 92 -64.5 131t-214.5 39h-356v256h371q246 0 377 -95.5t131 -285.5q0 -45 -9.5 -91.5t-31 -88.5t-57.5 -77.5t-87 -60.5q59 -27 99 -65.5t65 -83.5t35 -94.5t10 -94.5 q0 -90 -35 -170t-107.5 -139t-183 -93t-262.5 -34h-315z" />
<glyph unicode="4" horiz-adv-x="1222" d="M35 932v541h256v-541q0 -201 217 -201h248v647h256v-647h162v-256h-162v-475h-256v475h-248q-473 0 -473 457z" />
<glyph unicode="5" horiz-adv-x="1155" d="M82 0v256h508q119 0 195.5 57.5t76.5 147.5t-76.5 144t-195.5 54h-508v814h924v-256h-674v-302h258q113 0 205 -34.5t158.5 -97t103.5 -146.5t37 -182t-37 -182.5t-102.5 -144.5t-158.5 -94t-206 -34h-508z" />
<glyph unicode="6" horiz-adv-x="1345" d="M55 752q0 160 53.5 292t151.5 227t234.5 148.5t302.5 53.5h276v-256h-276q-111 0 -185.5 -20.5t-127 -59.5t-86 -95.5t-60.5 -126.5h524q203 0 315.5 -113.5t112.5 -326.5q0 -98 -31.5 -184t-102.5 -150.5t-186.5 -102.5t-281.5 -38q-123 0 -236.5 48t-201.5 142.5 t-141.5 234.5t-53.5 327zM309 680q8 -94 34 -172t75 -134.5t122.5 -87t176.5 -30.5q90 0 155.5 18.5t107.5 49t62.5 70.5t20.5 81q0 96 -57.5 150.5t-139.5 54.5h-557z" />
<glyph unicode="7" horiz-adv-x="1300" d="M70 2l893 1215h-871v256h981q98 0 154.5 -42t56.5 -110q0 -70 -57 -150l-858 -1169h-299z" />
<glyph unicode="8" horiz-adv-x="1261" d="M63 438q0 45 10.5 94.5t35 94.5t64.5 84t99 65q-53 25 -87.5 60.5t-56.5 77.5t-31 88.5t-9 91.5q0 190 131 285.5t377 95.5h68q246 0 376.5 -95.5t130.5 -285.5q0 -45 -9 -91.5t-30.5 -88.5t-57.5 -77.5t-87 -60.5q59 -27 99 -65.5t65 -83.5t35 -94.5t10 -94.5 q0 -88 -34 -165.5t-102.5 -137t-174 -95.5t-248.5 -38q-147 2 -256 37t-179.5 93t-104.5 137t-34 169zM311 438q0 -92 84 -136t215 -44h39q131 0 215 44t84 136t-57 137.5t-141 45.5h-240q-84 0 -141.5 -45.5t-57.5 -137.5zM332 1049q0 -88 47 -130t131 -42h240q84 0 131 42 t47 130q0 92 -64.5 131t-214.5 39h-39q-150 0 -214 -39t-64 -131z" />
<glyph unicode="9" horiz-adv-x="1345" d="M53 995q0 98 32 184.5t102.5 151t186 102t281.5 37.5q123 0 237 -48t202 -142t141 -234.5t53 -326.5q0 -160 -53 -292t-151.5 -227.5t-234.5 -148.5t-302 -53h-277v256h277q111 0 185.5 20.5t126.5 59.5t85 94t62 127h-525q-203 0 -315.5 113.5t-112.5 326.5zM281 995 q0 -96 57 -150t139 -54h557q-8 94 -33.5 171.5t-74.5 134t-123 87t-176 30.5q-90 0 -155.5 -18t-107.5 -49t-62.5 -71t-20.5 -81z" />
<glyph unicode=":" horiz-adv-x="391" d="M61 348q0 61 39 95t93 34q53 0 92 -33.5t39 -95.5q0 -61 -39 -96t-92 -35t-92.5 35t-39.5 96zM61 1020q0 61 39 95t93 34q53 0 92 -34t39 -95t-39 -96t-92 -35t-92.5 35t-39.5 96z" />
<glyph unicode=";" horiz-adv-x="413" d="M47 -53l62 485h256l-170 -485h-148zM117 971q0 61 39 95t94 34q53 0 92 -34t39 -95t-39 -96t-94 -35q-53 0 -92 35t-39 96z" />
<glyph unicode="&#x3c;" horiz-adv-x="1605" d="M49 672q0 88 105 123l1400 473v-269l-962 -327l962 -326v-268l-1400 473q-104 35 -105 121z" />
<glyph unicode="=" horiz-adv-x="993" d="M82 408v235h862v-235h-862zM82 815v236h862v-236h-862z" />
<glyph unicode="&#x3e;" horiz-adv-x="1593" d="M82 78v268l962 326l-962 327v269l1401 -473q104 -35 104 -123q0 -86 -104 -121z" />
<glyph unicode="?" horiz-adv-x="1073" d="M66 1217v256h548q100 0 181.5 -32t138.5 -87.5t88 -132t31 -166.5t-31 -166t-89.5 -131.5t-142 -87t-190.5 -31.5h-176v-211h-256v340q0 51 38 89t91 38h270q111 0 176.5 47t65.5 115q0 66 -62.5 113t-179.5 47h-501zM162 125q0 61 40 95t93 34t92 -34t39 -95t-39 -96 t-92 -35q-55 0 -94 35t-39 96z" />
<glyph unicode="@" horiz-adv-x="1607" d="M76 369v714q0 106 40 181t116.5 121.5t189.5 67t260 20.5h426q94 0 173 -21.5t135.5 -68t87 -117t30.5 -168.5v-301q0 -84 -32 -141.5t-81 -93.5t-108.5 -52t-114.5 -16h-307q-178 0 -264 68.5t-86 197.5v84q0 70 54 122t146 52h207q203 0 203 -174v-164h45q59 0 98 31.5 t39 79.5v243q0 76 -64.5 129.5t-199.5 53.5h-346q-180 0 -281.5 -50.5t-101.5 -148.5v-567q0 -41 17.5 -77t57.5 -62.5t103.5 -41t157.5 -14.5h803v-256h-832q-156 0 -264.5 23.5t-177 69.5t-99 116t-30.5 160zM741 791q0 -47 33 -79t117 -32h67v180h-217v-69z" />
<glyph unicode="A" horiz-adv-x="1249" d="M-25 0l936 1407q29 41 67 58.5t81 17.5q49 0 78.5 -35t29.5 -92v-1356h-256v995l-630 -995h-306z" />
<glyph unicode="B" horiz-adv-x="1173" d="M82 2v1473h496q246 0 376.5 -95.5t130.5 -285.5q0 -45 -9 -91.5t-30.5 -88.5t-57.5 -77.5t-87 -60.5q59 -27 99 -65.5t65 -83.5t35 -94.5t10 -94.5q0 -90 -35 -170t-107.5 -139t-183 -93t-262.5 -34h-440zM338 258h225q131 0 215 44t84 136t-57 137.5t-141 45.5h-177v256 h177q84 0 131 42t47 130q0 92 -64.5 131t-214.5 39h-225v-961z" />
<glyph unicode="C" horiz-adv-x="1036" d="M47 752q0 160 53.5 292t151.5 227t234.5 148.5t301.5 53.5h216v-256h-216q-104 0 -194 -37t-154.5 -101.5t-101.5 -153.5t-37 -194q0 -104 36 -191t100.5 -149.5t153.5 -98.5t197 -36h216v-256h-216q-164 0 -300 57.5t-234 158.5t-152.5 238.5t-54.5 297.5z" />
<glyph unicode="D" horiz-adv-x="1298" d="M82 0v1473h422q164 0 300 -53.5t234.5 -148.5t152.5 -227.5t54 -291.5q0 -160 -55 -297.5t-153.5 -238.5t-234.5 -158.5t-298 -57.5h-422zM338 256h166q109 0 199 36t153.5 99.5t98 150.5t34.5 189q0 104 -35.5 193.5t-100.5 154t-154 101.5t-195 37h-166v-961z" />
<glyph unicode="E" horiz-adv-x="851" d="M82 0v1473h719v-256h-463v-343h397v-256h-397v-362h473v-256h-729z" />
<glyph unicode="F" horiz-adv-x="774" d="M82 0v1473h670v-256h-414v-386h348v-256h-348v-575h-256z" />
<glyph unicode="G" horiz-adv-x="1183" d="M49 752q0 160 53.5 292t151.5 227t234.5 148.5t302.5 53.5h215v-256h-215q-104 0 -194.5 -37t-155 -101.5t-101.5 -153.5t-37 -194q0 -104 36 -191t100.5 -149.5t153.5 -98.5t198 -36h77v362h-344v256h586v-874h-319q-164 0 -300.5 57.5t-234.5 158.5t-152.5 238.5 t-54.5 297.5z" />
<glyph unicode="H" horiz-adv-x="1114" d="M82 0v1473h256v-599h436v599h256v-1473h-256v616h-436v-616h-256z" />
<glyph unicode="I" horiz-adv-x="423" d="M82 0v1473h256v-1473h-256z" />
<glyph unicode="J" horiz-adv-x="835" d="M14 0v256h127q193 0 282 97.5t89 310.5v809h256v-809q0 -340 -160 -502t-467 -162h-127z" />
<glyph unicode="K" horiz-adv-x="1392" d="M82 117v1356h256v-996l631 996h305l-440 -650l600 -823h-347l-405 594l-344 -528q-29 -41 -67 -58.5t-81 -17.5q-49 0 -78.5 34.5t-29.5 92.5z" />
<glyph unicode="L" horiz-adv-x="745" d="M68 0v1473h256v-1217h399v-256h-655z" />
<glyph unicode="M" horiz-adv-x="2144" d="M-16 0l936 1407q29 41 66.5 58.5t80.5 17.5q49 0 79 -35t30 -92v-897l630 948q29 41 67 58.5t81 17.5q49 0 78.5 -35t29.5 -92v-1356h-256v995l-573 -907q-33 -51 -71 -69.5t-77 -18.5q-66 0 -115.5 47t-49.5 121v827l-631 -995h-305z" />
<glyph unicode="N" horiz-adv-x="1390" d="M82 0v1343q0 59 31.5 94.5t91.5 35.5q39 0 72.5 -16.5t66.5 -59.5l719 -946v1022h246v-1346q0 -141 -97 -141q-47 0 -82.5 21.5t-80.5 66.5l-721 948v-1022h-246z" />
<glyph unicode="O" d="M59 752q0 297 181 495q205 225 561 226h43q356 0 559 -224q182 -201 182 -497q0 -301 -188 -516q-209 -236 -553 -236h-43q-344 0 -553 236q-188 215 -189 516zM313 731q0 -195 121 -328q135 -147 367 -147h43q231 0 364 147q123 133 123 328q0 213 -137 349.5 t-350 136.5h-43q-213 0 -350.5 -137.5t-137.5 -348.5z" />
<glyph unicode="P" horiz-adv-x="1134" d="M82 0v1473h487q127 0 227.5 -40t171 -112t107.5 -169t37 -210t-38 -210t-108.5 -167.5t-171 -110.5t-225.5 -40h-231v-414h-256zM338 670h225q68 0 123 20.5t95 57t61.5 87t21.5 109.5q0 57 -21.5 107.5t-60.5 87.5t-95 57.5t-124 20.5h-225v-547z" />
<glyph unicode="Q" horiz-adv-x="1642" d="M53 752q0 160 53.5 292t151.5 227t234.5 148.5t302.5 53.5h43q166 0 302 -53.5t234.5 -149.5t151.5 -228.5t53 -289.5q0 -324 -211 -541l123 -121l-213 -158l-135 125q-123 -57 -305 -57h-43q-164 0 -300.5 58.5t-234.5 159.5t-152.5 238.5t-54.5 295.5zM307 731 q0 -104 36 -191t100.5 -149.5t153.5 -98.5t198 -36h43q74 0 98 8l-178 180l209 158l221 -213q137 135 137 342q0 106 -37 195.5t-102.5 154t-154.5 100.5t-193 36h-43q-104 0 -194.5 -37t-155 -101.5t-101.5 -153.5t-37 -194z" />
<glyph unicode="R" horiz-adv-x="1239" d="M82 0v1473h545q117 0 218 -33t176 -96.5t118 -157.5t43 -217q0 -74 -22.5 -152t-76 -145.5t-140.5 -119.5t-216 -73l451 -479h-359l-391 414q-70 72 -70 137q0 59 40 91t114 36q203 14 303 82.5t100 202.5q0 127 -76.5 190.5t-217.5 63.5h-283v-1217h-256z" />
<glyph unicode="S" horiz-adv-x="1173" d="M68 1067q0 86 32.5 159.5t93 129t145.5 86.5t187 31h490v-256h-502q-82 0 -129 -45.5t-47 -106.5q0 -68 49 -114t127 -46h145q98 0 181.5 -32.5t143.5 -93t94 -143.5t34 -181t-37 -182.5t-102.5 -144.5t-158.5 -94t-206 -34h-516v256h516q119 0 196 57.5t77 147.5 t-77 147.5t-196 57.5h-116q-90 0 -168 29.5t-134.5 82.5t-89 127t-32.5 162z" />
<glyph unicode="T" horiz-adv-x="1040" d="M16 1217v256h1008v-256h-375v-1217h-256v1217h-377z" />
<glyph unicode="U" horiz-adv-x="1320" d="M72 664v809h256v-809q0 -115 17 -193t54 -126t95.5 -68.5t140.5 -20.5h49q80 0 138.5 21.5t96 68.5t55 125t17.5 193v809h256v-809q0 -317 -148.5 -490.5t-414.5 -173.5h-49q-268 0 -415.5 172t-147.5 492z" />
<glyph unicode="V" horiz-adv-x="1245" d="M-29 1473h305l631 -996v996h256v-1356q0 -57 -29.5 -92t-78.5 -35q-43 0 -81 17.5t-67 58.5z" />
<glyph unicode="W" horiz-adv-x="2119" d="M-41 1473h305l631 -996v828q0 74 50 121t116 47q39 0 77 -18.5t70 -70.5l574 -907v996h256v-1356q0 -57 -30 -92t-79 -35q-43 0 -81 17.5t-66 58.5l-631 948v-897q0 -57 -29.5 -92t-79.5 -35q-43 0 -80.5 17.5t-66.5 58.5z" />
<glyph unicode="X" horiz-adv-x="1140" d="M-4 0l426 815l-365 658h293l217 -426l217 426h293l-366 -687l428 -786h-283l-289 551l-288 -551h-283z" />
<glyph unicode="Y" horiz-adv-x="1269" d="M47 1085v388h256v-388q0 -115 17.5 -192.5t54.5 -125.5t95 -68.5t140 -20.5h49q80 0 138.5 21.5t96.5 68.5t55.5 125t17.5 192v388h256v-388q0 -287 -122 -455.5t-341 -201.5v-428h-256v430q-219 33 -338 201t-119 454z" />
<glyph unicode="Z" horiz-adv-x="1138" d="M41 121q0 55 49 131l617 965h-631v256h782q90 0 146.5 -39t56.5 -103q0 -51 -37 -110l-616 -965h632v-256h-802q-197 0 -197 121z" />
<glyph unicode="[" horiz-adv-x="1196" d="M49 117v1356h256v-996l631 996h305l-936 -1407q-29 -41 -66.5 -58.5t-80.5 -17.5q-49 0 -79 34.5t-30 92.5z" />
<glyph unicode="\" horiz-adv-x="849" d="M6 1473h119l719 -1475h-129z" />
<glyph unicode="]" horiz-adv-x="2082" d="M49 117v1356h256v-996l574 907q33 51 70.5 70t76.5 19q66 0 116 -47.5t50 -120.5v-828l631 996h305l-936 -1407q-29 -41 -67 -58.5t-81 -17.5q-49 0 -78.5 34.5t-29.5 92.5v897l-631 -948q-29 -41 -66.5 -58.5t-80.5 -17.5q-49 0 -79 34.5t-30 92.5z" />
<glyph unicode="^" horiz-adv-x="1320" d="M72 0v809q0 319 147.5 491.5t415.5 172.5h49q266 0 414.5 -173.5t148.5 -490.5v-809h-256v809q0 113 -17.5 191.5t-55 126t-96 69t-138.5 21.5h-49q-82 0 -140.5 -20.5t-95.5 -69t-54 -126t-17 -192.5v-809h-256z" />
<glyph unicode="_" horiz-adv-x="1159" d="M-53 -49v155h1251v-155h-1251z" />
<glyph unicode="`" horiz-adv-x="319" d="M-53 1739h139l113 -199h-78z" />
<glyph unicode="a" horiz-adv-x="1249" d="M-25 0l936 1407q29 41 67 58.5t81 17.5q49 0 78.5 -35t29.5 -92v-1356h-256v995l-630 -995h-306z" />
<glyph unicode="b" horiz-adv-x="1173" d="M82 2v1473h496q246 0 376.5 -95.5t130.5 -285.5q0 -45 -9 -91.5t-30.5 -88.5t-57.5 -77.5t-87 -60.5q59 -27 99 -65.5t65 -83.5t35 -94.5t10 -94.5q0 -90 -35 -170t-107.5 -139t-183 -93t-262.5 -34h-440zM338 258h225q131 0 215 44t84 136t-57 137.5t-141 45.5h-177v256 h177q84 0 131 42t47 130q0 92 -64.5 131t-214.5 39h-225v-961z" />
<glyph unicode="c" horiz-adv-x="1036" d="M47 752q0 160 53.5 292t151.5 227t234.5 148.5t301.5 53.5h216v-256h-216q-104 0 -194 -37t-154.5 -101.5t-101.5 -153.5t-37 -194q0 -104 36 -191t100.5 -149.5t153.5 -98.5t197 -36h216v-256h-216q-164 0 -300 57.5t-234 158.5t-152.5 238.5t-54.5 297.5z" />
<glyph unicode="d" horiz-adv-x="1298" d="M82 0v1473h422q164 0 300 -53.5t234.5 -148.5t152.5 -227.5t54 -291.5q0 -160 -55 -297.5t-153.5 -238.5t-234.5 -158.5t-298 -57.5h-422zM338 256h166q109 0 199 36t153.5 99.5t98 150.5t34.5 189q0 104 -35.5 193.5t-100.5 154t-154 101.5t-195 37h-166v-961z" />
<glyph unicode="e" horiz-adv-x="851" d="M82 0v1473h719v-256h-463v-343h397v-256h-397v-362h473v-256h-729z" />
<glyph unicode="f" horiz-adv-x="774" d="M82 0v1473h670v-256h-414v-386h348v-256h-348v-575h-256z" />
<glyph unicode="g" horiz-adv-x="1183" d="M49 752q0 160 53.5 292t151.5 227t234.5 148.5t302.5 53.5h215v-256h-215q-104 0 -194.5 -37t-155 -101.5t-101.5 -153.5t-37 -194q0 -104 36 -191t100.5 -149.5t153.5 -98.5t198 -36h77v362h-344v256h586v-874h-319q-164 0 -300.5 57.5t-234.5 158.5t-152.5 238.5 t-54.5 297.5z" />
<glyph unicode="h" horiz-adv-x="1114" d="M82 0v1473h256v-599h436v599h256v-1473h-256v616h-436v-616h-256z" />
<glyph unicode="i" horiz-adv-x="423" d="M82 0v1473h256v-1473h-256z" />
<glyph unicode="j" horiz-adv-x="835" d="M14 0v256h127q193 0 282 97.5t89 310.5v809h256v-809q0 -340 -160 -502t-467 -162h-127z" />
<glyph unicode="k" horiz-adv-x="1392" d="M82 117v1356h256v-996l631 996h305l-440 -650l600 -823h-347l-405 594l-344 -528q-29 -41 -67 -58.5t-81 -17.5q-49 0 -78.5 34.5t-29.5 92.5z" />
<glyph unicode="l" horiz-adv-x="745" d="M68 0v1473h256v-1217h399v-256h-655z" />
<glyph unicode="m" horiz-adv-x="2144" d="M-16 0l936 1407q29 41 66.5 58.5t80.5 17.5q49 0 79 -35t30 -92v-897l630 948q29 41 67 58.5t81 17.5q49 0 78.5 -35t29.5 -92v-1356h-256v995l-573 -907q-33 -51 -71 -69.5t-77 -18.5q-66 0 -115.5 47t-49.5 121v827l-631 -995h-305z" />
<glyph unicode="n" horiz-adv-x="1390" d="M82 0v1343q0 59 31.5 94.5t91.5 35.5q39 0 72.5 -16.5t66.5 -59.5l719 -946v1022h246v-1346q0 -141 -97 -141q-47 0 -82.5 21.5t-80.5 66.5l-721 948v-1022h-246z" />
<glyph unicode="o" d="M59 752q0 297 181 495q205 225 561 226h43q356 0 559 -224q182 -201 182 -497q0 -301 -188 -516q-209 -236 -553 -236h-43q-344 0 -553 236q-188 215 -189 516zM313 731q0 -195 121 -328q135 -147 367 -147h43q231 0 364 147q123 133 123 328q0 213 -137 349.5 t-350 136.5h-43q-213 0 -350.5 -137.5t-137.5 -348.5z" />
<glyph unicode="p" horiz-adv-x="1134" d="M82 0v1473h487q127 0 227.5 -40t171 -112t107.5 -169t37 -210t-38 -210t-108.5 -167.5t-171 -110.5t-225.5 -40h-231v-414h-256zM338 670h225q68 0 123 20.5t95 57t61.5 87t21.5 109.5q0 57 -21.5 107.5t-60.5 87.5t-95 57.5t-124 20.5h-225v-547z" />
<glyph unicode="q" horiz-adv-x="1642" d="M53 752q0 160 53.5 292t151.5 227t234.5 148.5t302.5 53.5h43q166 0 302 -53.5t234.5 -149.5t151.5 -228.5t53 -289.5q0 -324 -211 -541l123 -121l-213 -158l-135 125q-123 -57 -305 -57h-43q-164 0 -300.5 58.5t-234.5 159.5t-152.5 238.5t-54.5 295.5zM307 731 q0 -104 36 -191t100.5 -149.5t153.5 -98.5t198 -36h43q74 0 98 8l-178 180l209 158l221 -213q137 135 137 342q0 106 -37 195.5t-102.5 154t-154.5 100.5t-193 36h-43q-104 0 -194.5 -37t-155 -101.5t-101.5 -153.5t-37 -194z" />
<glyph unicode="r" horiz-adv-x="1239" d="M82 0v1473h545q117 0 218 -33t176 -96.5t118 -157.5t43 -217q0 -74 -22.5 -152t-76 -145.5t-140.5 -119.5t-216 -73l451 -479h-359l-391 414q-70 72 -70 137q0 59 40 91t114 36q203 14 303 82.5t100 202.5q0 127 -76.5 190.5t-217.5 63.5h-283v-1217h-256z" />
<glyph unicode="s" horiz-adv-x="1173" d="M68 1067q0 86 32.5 159.5t93 129t145.5 86.5t187 31h490v-256h-502q-82 0 -129 -45.5t-47 -106.5q0 -68 49 -114t127 -46h145q98 0 181.5 -32.5t143.5 -93t94 -143.5t34 -181t-37 -182.5t-102.5 -144.5t-158.5 -94t-206 -34h-516v256h516q119 0 196 57.5t77 147.5 t-77 147.5t-196 57.5h-116q-90 0 -168 29.5t-134.5 82.5t-89 127t-32.5 162z" />
<glyph unicode="t" horiz-adv-x="1040" d="M16 1217v256h1008v-256h-375v-1217h-256v1217h-377z" />
<glyph unicode="u" horiz-adv-x="1320" d="M72 664v809h256v-809q0 -115 17 -193t54 -126t95.5 -68.5t140.5 -20.5h49q80 0 138.5 21.5t96 68.5t55 125t17.5 193v809h256v-809q0 -317 -148.5 -490.5t-414.5 -173.5h-49q-268 0 -415.5 172t-147.5 492z" />
<glyph unicode="v" horiz-adv-x="1245" d="M-29 1473h305l631 -996v996h256v-1356q0 -57 -29.5 -92t-78.5 -35q-43 0 -81 17.5t-67 58.5z" />
<glyph unicode="w" horiz-adv-x="2119" d="M-41 1473h305l631 -996v828q0 74 50 121t116 47q39 0 77 -18.5t70 -70.5l574 -907v996h256v-1356q0 -57 -30 -92t-79 -35q-43 0 -81 17.5t-66 58.5l-631 948v-897q0 -57 -29.5 -92t-79.5 -35q-43 0 -80.5 17.5t-66.5 58.5z" />
<glyph unicode="x" horiz-adv-x="1140" d="M-4 0l426 815l-365 658h293l217 -426l217 426h293l-366 -687l428 -786h-283l-289 551l-288 -551h-283z" />
<glyph unicode="y" horiz-adv-x="1269" d="M47 1085v388h256v-388q0 -115 17.5 -192.5t54.5 -125.5t95 -68.5t140 -20.5h49q80 0 138.5 21.5t96.5 68.5t55.5 125t17.5 192v388h256v-388q0 -287 -122 -455.5t-341 -201.5v-428h-256v430q-219 33 -338 201t-119 454z" />
<glyph unicode="z" horiz-adv-x="1138" d="M41 121q0 55 49 131l617 965h-631v256h782q90 0 146.5 -39t56.5 -103q0 -51 -37 -110l-616 -965h632v-256h-802q-197 0 -197 121z" />
<glyph unicode="{" horiz-adv-x="1196" d="M49 0v1356q0 57 30 92t79 35q43 0 80.5 -17.5t66.5 -58.5l936 -1407h-305l-631 995v-995h-256z" />
<glyph unicode="|" horiz-adv-x="288" d="M82 -455v2116h113v-2116h-113z" />
<glyph unicode="}" horiz-adv-x="2082" d="M49 0v1356q0 57 30 92t79 35q43 0 80.5 -17.5t66.5 -58.5l631 -948v897q0 57 29.5 92t78.5 35q43 0 81 -17.5t67 -58.5l936 -1407h-305l-631 995v-827q0 -74 -50 -121t-116 -47q-39 0 -77 18.5t-70 69.5l-574 907v-995h-256z" />
<glyph unicode="~" horiz-adv-x="3969" d="M119 250v776h127v-604h73v-172h-200zM371 250v282l75 494h138l86 -494v-282h-133v147h-43v-147h-123zM494 512h43v78l-17 207h-6l-20 -207v-78zM721 250v776h264l37 -82v-201l-51 -84v-12l51 -86v-311h-137v340h-37v-340h-127zM848 717h37v170h-37v-170zM1071 250v282 l78 494h137l80 -494v-282h-127v147h-41v-147h-127zM1198 512h41v78l-14 207h-11l-16 -207v-78zM1419 250v776h264l37 -82v-227l-26 -58v-12l26 -57v-254l-37 -86h-264zM1550 397h37v193h-37v-193zM1550 717h37v170h-37v-170zM1774 250v776h131v-776h-131zM1954 250v776h215 v-164h-88v-145h88v-135h-88v-160h88v-172h-215zM2312 250v776h211v-164h-82v-157h82v-136h-82v-319h-129zM2576 336v608l33 82h227l37 -82v-608l-41 -86h-223zM2703 397h37v490h-37v-490zM2922 250v776h189l37 -502h10v502h107v-776h-195l-29 502h-10v-502h-109zM3301 862 v164h271v-164h-70v-612h-131v612h-70zM3609 336v176h131v-115h32v156l-122 37l-41 82v272l36 82h222l32 -82v-156h-127v99h-32v-135l116 -35l43 -86v-295l-36 -86h-218z" />
<glyph unicode="&#xa1;" horiz-adv-x="401" d="M66 1341q0 61 39.5 96.5t93.5 35.5q53 0 92 -35.5t39 -96.5t-39 -95t-92 -34t-93 34t-40 95zM74 -6l41 1034h174l41 -1034h-256z" />
<glyph unicode="&#xa3;" horiz-adv-x="1220" d="M31 618v256h145q16 289 160.5 444t400.5 155h49q111 0 200 -31t159 -90l-180 -176q-68 41 -179 41h-49q-152 0 -225.5 -76t-81.5 -267h457v-256h-457v-364h715v-256h-1112v256h141v364h-143z" />
<glyph unicode="&#xa4;" d="M59 752q0 160 53.5 292t151.5 227t234.5 148.5t302.5 53.5h43q166 0 303 -53.5t234.5 -148.5t150.5 -228.5t53 -290.5q0 -160 -55 -297.5t-153.5 -238.5t-234.5 -158.5t-298 -57.5h-43q-164 0 -300 57.5t-234.5 158.5t-153 238.5t-54.5 297.5z" />
<glyph unicode="&#xa5;" horiz-adv-x="1269" d="M47 1188v285h256v-285q0 -115 17.5 -192.5t54.5 -126t95 -69t140 -20.5h49q80 0 138.5 21.5t96.5 69t55.5 125t17.5 192.5v285h256v-285q0 -287 -122 -456t-341 -202v-133h270v-194h-270v-203h-256v203h-275v194h275v135q-219 33 -338 201t-119 455z" />
<glyph unicode="&#xa8;" horiz-adv-x="688" d="M111 1659q0 41 25.5 67.5t66.5 26.5q39 0 66.5 -26.5t27.5 -67.5q0 -39 -27.5 -66.5t-66.5 -27.5q-41 0 -66.5 27.5t-25.5 66.5zM393 1659q0 41 28 67.5t64 26.5q41 0 67 -26.5t26 -67.5q0 -39 -26 -66.5t-67 -27.5q-37 0 -64.5 27.5t-27.5 66.5z" />
<glyph unicode="&#xa9;" horiz-adv-x="1615" d="M39 735q0 156 60.5 294t161.5 240.5t240.5 163t293.5 60.5q156 0 295 -60.5t240.5 -163t161.5 -240.5t60 -294q0 -154 -60 -293t-161.5 -240.5t-241 -161.5t-294.5 -60q-154 0 -293.5 60t-240.5 161.5t-161.5 241t-60.5 292.5zM129 733q0 -139 53.5 -261t142.5 -212 t211.5 -143.5t262.5 -53.5q137 0 260 53.5t214 143.5t144 212t53 261t-53 261t-144 215.5t-214 145.5t-260 52q-139 0 -262 -52t-212 -145.5t-142.5 -215.5t-53.5 -261zM332 750q0 102 34.5 188t98 147.5t152 96.5t196.5 35h139v-166h-139q-68 0 -126 -23.5t-101 -65.5 t-66.5 -100.5t-23.5 -126.5t23.5 -124t64.5 -97t99 -63.5t130 -22.5h139v-166h-139q-106 0 -194.5 38t-152 103.5t-99 154.5t-35.5 192z" />
<glyph unicode="&#xab;" horiz-adv-x="765" d="M66 664v172l296 235v-180l-194 -137l194 -140v-176zM389 664v172l295 235v-180l-192 -137l192 -140v-176z" />
<glyph unicode="&#xad;" horiz-adv-x="966" d="M82 618v256h801v-256h-801z" />
<glyph unicode="&#xae;" horiz-adv-x="919" d="M63 1126q0 76 30 143.5t82 119t125 81t159 29.5t159.5 -28.5t127 -79t84 -118t30.5 -147.5q0 -74 -30.5 -141t-85 -118.5t-128 -81t-157.5 -29.5q-86 0 -159 29.5t-125 81t-82 119t-30 140.5zM125 1126q0 -59 22.5 -116.5t65.5 -101.5t104.5 -71.5t139.5 -27.5 q72 0 136 24.5t112.5 67.5t76 100.5t27.5 124.5q0 57 -25.5 113.5t-73.5 101.5t-112.5 73t-140.5 28q-78 0 -139.5 -28t-104.5 -73t-65.5 -101t-22.5 -114zM334 918v403h145q55 0 91 -33t36 -96q0 -39 -16.5 -64.5t-50.5 -48.5l71 -161h-86l-67 147h-41v-147h-82zM416 1149 h65q43 0 43 43q0 49 -43 49h-65v-92z" />
<glyph unicode="&#xb4;" horiz-adv-x="317" d="M106 1544l113 199h139l-174 -199h-78z" />
<glyph unicode="&#xb6;" horiz-adv-x="1161" d="M12 145q0 45 23 76l788 1186q29 41 68 58.5t80 17.5q49 0 78.5 -35t29.5 -92v-1356h-256v995l-469 -739h238v-256h-422q-76 0 -117 45t-41 100z" />
<glyph unicode="&#xb8;" horiz-adv-x="370" d="M115 -248l20 70q16 -8 49 -8q57 0 58 28q0 16 -9.5 22.5t-33.5 6.5h-25q-4 0 -11 -1t-18 -3v147h66v-73q102 0 102 -93q0 -59 -30.5 -83.5t-96.5 -24.5q-23 0 -42 4t-29 8z" />
<glyph unicode="&#xbb;" horiz-adv-x="765" d="M66 438v176l192 140l-192 137v180l294 -235v-172zM387 438v176l195 140l-195 137v180l297 -235v-172z" />
<glyph unicode="&#xbf;" horiz-adv-x="1075" d="M20 412q0 90 31 165.5t89.5 131t142.5 87t190 31.5h176v211h256v-340q0 -51 -38 -89t-91 -38h-270q-111 0 -176.5 -47t-65.5 -114q0 -66 62.5 -113t179.5 -47h502v-256h-549q-100 0 -181 31.5t-138.5 87t-88.5 132.5t-31 167zM647 1341q0 61 39 96.5t92 35.5 q55 0 94 -35.5t39 -96.5t-40 -95t-93 -34t-92 34t-39 95z" />
<glyph unicode="&#xc0;" horiz-adv-x="1249" d="M-25 0l936 1407q29 41 67 58.5t81 17.5q49 0 78.5 -35t29.5 -92v-1356h-256v995l-630 -995h-306zM842 1741h139l113 -199h-78z" />
<glyph unicode="&#xc1;" horiz-adv-x="1249" d="M-25 0l936 1407q29 41 67 58.5t81 17.5q49 0 78.5 -35t29.5 -92v-1356h-256v995l-630 -995h-306zM950 1546l113 199h139l-174 -199h-78z" />
<glyph unicode="&#xc2;" horiz-adv-x="1249" d="M-25 0l936 1407q29 41 67 58.5t81 17.5q49 0 78.5 -35t29.5 -92v-1356h-256v995l-630 -995h-306zM850 1565l166 196h121l170 -196h-129l-101 133l-100 -133h-127z" />
<glyph unicode="&#xc3;" horiz-adv-x="1249" d="M-25 0l936 1407q29 41 67 58.5t81 17.5q49 0 78.5 -35t29.5 -92v-1356h-256v995l-630 -995h-306zM805 1618q31 57 68.5 81.5t84.5 24.5q37 0 60.5 -8t43 -19.5t38 -19.5t45.5 -8q59 0 92 70l63 -74q-37 -98 -149 -98q-29 0 -50.5 9t-42 20.5t-41 20.5t-42.5 9 q-25 0 -49.5 -15.5t-49.5 -54.5z" />
<glyph unicode="&#xc4;" horiz-adv-x="1249" d="M-25 0l936 1407q29 41 67 58.5t81 17.5q49 0 78.5 -35t29.5 -92v-1356h-256v995l-630 -995h-306zM816 1661q0 41 25.5 67.5t66.5 26.5q39 0 66.5 -26.5t27.5 -67.5q0 -39 -27.5 -66.5t-66.5 -27.5q-41 0 -66.5 27.5t-25.5 66.5zM1098 1661q0 41 28 67.5t64 26.5 q41 0 67 -26.5t26 -67.5q0 -39 -26 -66.5t-67 -27.5q-37 0 -64.5 27.5t-27.5 66.5z" />
<glyph unicode="&#xc5;" horiz-adv-x="1249" d="M-25 0l936 1407q29 41 67 58.5t81 17.5q49 0 78.5 -35t29.5 -92v-1356h-256v995l-630 -995h-306zM953 1679q0 55 34.5 93t87.5 38t89 -38.5t36 -92.5q0 -53 -36 -88t-89 -35t-87.5 35t-34.5 88zM1004 1679q0 -33 20.5 -54t50.5 -21q31 0 53.5 21.5t22.5 53.5 q0 31 -22.5 53.5t-53.5 22.5q-29 0 -50 -22.5t-21 -53.5z" />
<glyph unicode="&#xc6;" horiz-adv-x="1701" d="M-33 0l936 1407q29 41 67 53.5t81 12.5h579v-256h-463v-343h398v-256h-398v-362h473v-256h-737v995l-631 -995h-305z" />
<glyph unicode="&#xc7;" horiz-adv-x="1036" d="M47 752q0 160 53.5 292t151.5 227t234.5 148.5t301.5 53.5h216v-256h-216q-104 0 -194 -37t-154.5 -101.5t-101.5 -153.5t-37 -194q0 -104 36 -191t100.5 -149.5t153.5 -98.5t197 -36h216v-256h-216q-164 0 -300 57.5t-234 158.5t-152.5 238.5t-54.5 297.5zM719 -248 l20 70q16 -8 49 -8q57 0 58 28q0 16 -9.5 22.5t-33.5 6.5h-25q-4 0 -11 -1t-18 -3v147h66v-73q102 0 102 -93q0 -59 -30.5 -83.5t-96.5 -24.5q-23 0 -42 4t-29 8z" />
<glyph unicode="&#xc8;" horiz-adv-x="851" d="M82 0v1473h719v-256h-463v-343h397v-256h-397v-362h473v-256h-729zM332 1741h139l113 -199h-78z" />
<glyph unicode="&#xc9;" horiz-adv-x="851" d="M82 0v1473h719v-256h-463v-343h397v-256h-397v-362h473v-256h-729zM348 1546l113 199h139l-174 -199h-78z" />
<glyph unicode="&#xca;" horiz-adv-x="851" d="M82 0v1473h719v-256h-463v-343h397v-256h-397v-362h473v-256h-729zM231 1565l166 196h121l170 -196h-129l-101 133l-100 -133h-127z" />
<glyph unicode="&#xcb;" horiz-adv-x="851" d="M82 0v1473h719v-256h-463v-343h397v-256h-397v-362h473v-256h-729zM248 1661q0 41 25.5 67.5t66.5 26.5q39 0 66.5 -26.5t27.5 -67.5q0 -39 -27.5 -66.5t-66.5 -27.5q-41 0 -66.5 27.5t-25.5 66.5zM530 1661q0 41 28 67.5t64 26.5q41 0 67 -26.5t26 -67.5 q0 -39 -26 -66.5t-67 -27.5q-37 0 -64.5 27.5t-27.5 66.5z" />
<glyph unicode="&#xcc;" horiz-adv-x="423" d="M45 1741h139l113 -199h-78zM82 0v1473h256v-1473h-256z" />
<glyph unicode="&#xcd;" horiz-adv-x="423" d="M82 0v1473h256v-1473h-256zM120 1546l113 199h139l-174 -199h-78z" />
<glyph unicode="&#xce;" horiz-adv-x="423" d="M-14 1565l166 196h121l170 -196h-129l-101 133l-100 -133h-127zM82 0v1473h256v-1473h-256z" />
<glyph unicode="&#xcf;" horiz-adv-x="423" d="M-18 1661q0 41 25.5 67.5t66.5 26.5q39 0 66.5 -26.5t27.5 -67.5q0 -39 -27.5 -66.5t-66.5 -27.5q-41 0 -66.5 27.5t-25.5 66.5zM82 0v1473h256v-1473h-256zM264 1661q0 41 28 67.5t64 26.5q41 0 67 -26.5t26 -67.5q0 -39 -26 -66.5t-67 -27.5q-37 0 -64.5 27.5 t-27.5 66.5z" />
<glyph unicode="&#xd0;" horiz-adv-x="1298" d="M82 0v1473h422q164 0 300 -53.5t234.5 -148.5t152.5 -227.5t54 -291.5q0 -160 -55 -297.5t-153.5 -238.5t-234.5 -158.5t-298 -57.5h-422zM338 256h166q109 0 199 36t153.5 99.5t98 150.5t34.5 189q0 104 -35.5 193.5t-100.5 154t-154 101.5t-195 37h-166v-343h344v-256 h-344v-362z" />
<glyph unicode="&#xd1;" horiz-adv-x="1390" d="M82 0v1343q0 59 31.5 94.5t91.5 35.5q39 0 72.5 -16.5t66.5 -59.5l719 -946v1022h246v-1346q0 -141 -97 -141q-47 0 -82.5 21.5t-80.5 66.5l-721 948v-1022h-246zM447 1618q31 57 68.5 81.5t84.5 24.5q37 0 60.5 -8t43 -19.5t38 -19.5t45.5 -8q59 0 92 70l63 -74 q-37 -98 -149 -98q-29 0 -50.5 9t-42 20.5t-41 20.5t-42.5 9q-25 0 -49.5 -15.5t-49.5 -54.5z" />
<glyph unicode="&#xd2;" d="M59 752q0 297 181 495q205 225 561 226h43q356 0 559 -224q182 -201 182 -497q0 -301 -188 -516q-209 -236 -553 -236h-43q-344 0 -553 236q-188 215 -189 516zM313 731q0 -195 121 -328q135 -147 367 -147h43q231 0 364 147q123 133 123 328q0 213 -137 349.5 t-350 136.5h-43q-213 0 -350.5 -137.5t-137.5 -348.5zM697 1741h139l113 -199h-78z" />
<glyph unicode="&#xd3;" d="M59 752q0 297 181 495q205 225 561 226h43q356 0 559 -224q182 -201 182 -497q0 -301 -188 -516q-209 -236 -553 -236h-43q-344 0 -553 236q-188 215 -189 516zM313 731q0 -195 121 -328q135 -147 367 -147h43q231 0 364 147q123 133 123 328q0 213 -137 349.5 t-350 136.5h-43q-213 0 -350.5 -137.5t-137.5 -348.5zM696 1546l113 199h139l-174 -199h-78z" />
<glyph unicode="&#xd4;" d="M59 752q0 297 181 495q205 225 561 226h43q356 0 559 -224q182 -201 182 -497q0 -301 -188 -516q-209 -236 -553 -236h-43q-344 0 -553 236q-188 215 -189 516zM313 731q0 -195 121 -328q135 -147 367 -147h43q231 0 364 147q123 133 123 328q0 213 -137 349.5 t-350 136.5h-43q-213 0 -350.5 -137.5t-137.5 -348.5zM594 1565l166 196h121l170 -196h-129l-101 133l-100 -133h-127z" />
<glyph unicode="&#xd5;" d="M59 752q0 297 181 495q205 225 561 226h43q356 0 559 -224q182 -201 182 -497q0 -301 -188 -516q-209 -236 -553 -236h-43q-344 0 -553 236q-188 215 -189 516zM313 731q0 -195 121 -328q135 -147 367 -147h43q231 0 364 147q123 133 123 328q0 213 -137 349.5 t-350 136.5h-43q-213 0 -350.5 -137.5t-137.5 -348.5zM574 1618q31 57 68.5 81.5t84.5 24.5q37 0 60.5 -8t43 -19.5t38 -19.5t45.5 -8q59 0 92 70l63 -74q-37 -98 -149 -98q-29 0 -50.5 9t-42 20.5t-41 20.5t-42.5 9q-25 0 -49.5 -15.5t-49.5 -54.5z" />
<glyph unicode="&#xd6;" d="M59 752q0 297 181 495q205 225 561 226h43q356 0 559 -224q182 -201 182 -497q0 -301 -188 -516q-209 -236 -553 -236h-43q-344 0 -553 236q-188 215 -189 516zM313 731q0 -195 121 -328q135 -147 367 -147h43q231 0 364 147q123 133 123 328q0 213 -137 349.5 t-350 136.5h-43q-213 0 -350.5 -137.5t-137.5 -348.5zM588 1661q0 41 25.5 67.5t66.5 26.5q39 0 66.5 -26.5t27.5 -67.5q0 -39 -27.5 -66.5t-66.5 -27.5q-41 0 -66.5 27.5t-25.5 66.5zM870 1661q0 41 28 67.5t64 26.5q41 0 67 -26.5t26 -67.5q0 -39 -26 -66.5t-67 -27.5 q-37 0 -64.5 27.5t-27.5 66.5z" />
<glyph unicode="&#xd8;" d="M59 752q0 297 181 495q205 225 561 226h43q141 0 260 -37l18 37h119l-37 -76q113 -53 199 -148q182 -201 182 -497q0 -301 -188 -516q-209 -236 -553 -236h-43q-135 0 -250 35l-19 -37h-129l39 82q-109 57 -194 156q-188 215 -189 516zM313 731q0 -195 121 -328 q53 -59 121 -94l432 889q-66 18 -143 19h-43q-213 0 -350.5 -137.5t-137.5 -348.5zM664 270q63 -14 137 -14h43q231 0 364 147q123 133 123 328q0 213 -137 348q-47 47 -104 78z" />
<glyph unicode="&#xd9;" horiz-adv-x="1320" d="M72 664v809h256v-809q0 -115 17 -193t54 -126t95.5 -68.5t140.5 -20.5h49q80 0 138.5 21.5t96 68.5t55 125t17.5 193v809h256v-809q0 -317 -148.5 -490.5t-414.5 -173.5h-49q-268 0 -415.5 172t-147.5 492zM535 1741h139l113 -199h-78z" />
<glyph unicode="&#xda;" horiz-adv-x="1320" d="M72 664v809h256v-809q0 -115 17 -193t54 -126t95.5 -68.5t140.5 -20.5h49q80 0 138.5 21.5t96 68.5t55 125t17.5 193v809h256v-809q0 -317 -148.5 -490.5t-414.5 -173.5h-49q-268 0 -415.5 172t-147.5 492zM534 1546l113 199h139l-174 -199h-78z" />
<glyph unicode="&#xdb;" horiz-adv-x="1320" d="M72 664v809h256v-809q0 -115 17 -193t54 -126t95.5 -68.5t140.5 -20.5h49q80 0 138.5 21.5t96 68.5t55 125t17.5 193v809h256v-809q0 -317 -148.5 -490.5t-414.5 -173.5h-49q-268 0 -415.5 172t-147.5 492zM432 1565l166 196h121l170 -196h-129l-101 133l-100 -133h-127z " />
<glyph unicode="&#xdc;" horiz-adv-x="1320" d="M72 664v809h256v-809q0 -115 17 -193t54 -126t95.5 -68.5t140.5 -20.5h49q80 0 138.5 21.5t96 68.5t55 125t17.5 193v809h256v-809q0 -317 -148.5 -490.5t-414.5 -173.5h-49q-268 0 -415.5 172t-147.5 492zM426 1661q0 41 25.5 67.5t66.5 26.5q39 0 66.5 -26.5 t27.5 -67.5q0 -39 -27.5 -66.5t-66.5 -27.5q-41 0 -66.5 27.5t-25.5 66.5zM708 1661q0 41 28 67.5t64 26.5q41 0 67 -26.5t26 -67.5q0 -39 -26 -66.5t-67 -27.5q-37 0 -64.5 27.5t-27.5 66.5z" />
<glyph unicode="&#xdd;" horiz-adv-x="1269" d="M47 1085v388h256v-388q0 -115 17.5 -192.5t54.5 -125.5t95 -68.5t140 -20.5h49q80 0 138.5 21.5t96.5 68.5t55.5 125t17.5 192v388h256v-388q0 -287 -122 -455.5t-341 -201.5v-428h-256v430q-219 33 -338 201t-119 454zM507 1546l113 199h139l-174 -199h-78z" />
<glyph unicode="&#xde;" horiz-adv-x="1134" d="M82 0v1473h256v-197h231q127 0 227.5 -40t171 -111.5t107.5 -169t37 -210.5t-38 -210t-108.5 -167.5t-171 -110.5t-225.5 -40h-231v-217h-256zM338 473h225q68 0 123 20.5t95 57.5t61.5 87t21.5 110q0 57 -21.5 107t-60.5 87t-95 57.5t-124 20.5h-225v-547z" />
<glyph unicode="&#xdf;" horiz-adv-x="2347" d="M68 1067q0 86 32.5 159.5t93 129t145.5 86.5t187 31h490v-256h-502q-82 0 -129 -45.5t-47 -106.5q0 -68 49 -114t127 -46h145q98 0 181.5 -32.5t143.5 -93t94 -143.5t34 -181t-37 -182.5t-102.5 -144.5t-158.5 -94t-206 -34h-516v256h516q119 0 196 57.5t77 147.5 t-77 147.5t-196 57.5h-116q-90 0 -168 29.5t-134.5 82.5t-89 127t-32.5 162zM1242 1067q0 86 32.5 159.5t93 129t145.5 86.5t187 31h490v-256h-502q-82 0 -129 -45.5t-47 -106.5q0 -68 49 -114t127 -46h145q98 0 181.5 -32.5t143.5 -93t94 -143.5t34 -181t-37 -182.5 t-102.5 -144.5t-158.5 -94t-206 -34h-516v256h516q119 0 196 57.5t77 147.5t-77 147.5t-196 57.5h-116q-90 0 -168 29.5t-134.5 82.5t-89 127t-32.5 162z" />
<glyph unicode="&#xe0;" horiz-adv-x="1249" d="M-25 0l936 1407q29 41 67 58.5t81 17.5q49 0 78.5 -35t29.5 -92v-1356h-256v995l-630 -995h-306zM842 1741h139l113 -199h-78z" />
<glyph unicode="&#xe1;" horiz-adv-x="1249" d="M-25 0l936 1407q29 41 67 58.5t81 17.5q49 0 78.5 -35t29.5 -92v-1356h-256v995l-630 -995h-306zM950 1546l113 199h139l-174 -199h-78z" />
<glyph unicode="&#xe2;" horiz-adv-x="1249" d="M-25 0l936 1407q29 41 67 58.5t81 17.5q49 0 78.5 -35t29.5 -92v-1356h-256v995l-630 -995h-306zM850 1565l166 196h121l170 -196h-129l-101 133l-100 -133h-127z" />
<glyph unicode="&#xe3;" horiz-adv-x="1249" d="M-25 0l936 1407q29 41 67 58.5t81 17.5q49 0 78.5 -35t29.5 -92v-1356h-256v995l-630 -995h-306zM805 1618q31 57 68.5 81.5t84.5 24.5q37 0 60.5 -8t43 -19.5t38 -19.5t45.5 -8q59 0 92 70l63 -74q-37 -98 -149 -98q-29 0 -50.5 9t-42 20.5t-41 20.5t-42.5 9 q-25 0 -49.5 -15.5t-49.5 -54.5z" />
<glyph unicode="&#xe4;" horiz-adv-x="1249" d="M-25 0l936 1407q29 41 67 58.5t81 17.5q49 0 78.5 -35t29.5 -92v-1356h-256v995l-630 -995h-306zM816 1661q0 41 25.5 67.5t66.5 26.5q39 0 66.5 -26.5t27.5 -67.5q0 -39 -27.5 -66.5t-66.5 -27.5q-41 0 -66.5 27.5t-25.5 66.5zM1098 1661q0 41 28 67.5t64 26.5 q41 0 67 -26.5t26 -67.5q0 -39 -26 -66.5t-67 -27.5q-37 0 -64.5 27.5t-27.5 66.5z" />
<glyph unicode="&#xe5;" horiz-adv-x="1249" d="M-25 0l936 1407q29 41 67 58.5t81 17.5q49 0 78.5 -35t29.5 -92v-1356h-256v995l-630 -995h-306zM953 1679q0 55 34.5 93t87.5 38t89 -38.5t36 -92.5q0 -53 -36 -88t-89 -35t-87.5 35t-34.5 88zM1004 1679q0 -33 20.5 -54t50.5 -21q31 0 53.5 21.5t22.5 53.5 q0 31 -22.5 53.5t-53.5 22.5q-29 0 -50 -22.5t-21 -53.5z" />
<glyph unicode="&#xe6;" horiz-adv-x="1701" d="M-33 0l936 1407q29 41 67 53.5t81 12.5h579v-256h-463v-343h398v-256h-398v-362h473v-256h-737v995l-631 -995h-305z" />
<glyph unicode="&#xe7;" horiz-adv-x="1036" d="M47 752q0 160 53.5 292t151.5 227t234.5 148.5t301.5 53.5h216v-256h-216q-104 0 -194 -37t-154.5 -101.5t-101.5 -153.5t-37 -194q0 -104 36 -191t100.5 -149.5t153.5 -98.5t197 -36h216v-256h-216q-164 0 -300 57.5t-234 158.5t-152.5 238.5t-54.5 297.5zM758 -248 l20 70q16 -8 49 -8q57 0 58 28q0 16 -9.5 22.5t-33.5 6.5h-25q-4 0 -11 -1t-18 -3v147h66v-73q102 0 102 -93q0 -59 -30.5 -83.5t-96.5 -24.5q-23 0 -42 4t-29 8z" />
<glyph unicode="&#xe8;" horiz-adv-x="851" d="M82 0v1473h719v-256h-463v-343h397v-256h-397v-362h473v-256h-729zM332 1741h139l113 -199h-78z" />
<glyph unicode="&#xe9;" horiz-adv-x="851" d="M82 0v1473h719v-256h-463v-343h397v-256h-397v-362h473v-256h-729zM348 1546l113 199h139l-174 -199h-78z" />
<glyph unicode="&#xea;" horiz-adv-x="851" d="M82 0v1473h719v-256h-463v-343h397v-256h-397v-362h473v-256h-729zM231 1565l166 196h121l170 -196h-129l-101 133l-100 -133h-127z" />
<glyph unicode="&#xeb;" horiz-adv-x="851" d="M82 0v1473h719v-256h-463v-343h397v-256h-397v-362h473v-256h-729zM248 1661q0 41 25.5 67.5t66.5 26.5q39 0 66.5 -26.5t27.5 -67.5q0 -39 -27.5 -66.5t-66.5 -27.5q-41 0 -66.5 27.5t-25.5 66.5zM530 1661q0 41 28 67.5t64 26.5q41 0 67 -26.5t26 -67.5 q0 -39 -26 -66.5t-67 -27.5q-37 0 -64.5 27.5t-27.5 66.5z" />
<glyph unicode="&#xec;" horiz-adv-x="423" d="M45 1741h139l113 -199h-78zM82 0v1473h256v-1473h-256z" />
<glyph unicode="&#xed;" horiz-adv-x="423" d="M82 0v1473h256v-1473h-256zM120 1546l113 199h139l-174 -199h-78z" />
<glyph unicode="&#xee;" horiz-adv-x="423" d="M-14 1565l166 196h121l170 -196h-129l-101 133l-100 -133h-127zM82 0v1473h256v-1473h-256z" />
<glyph unicode="&#xef;" horiz-adv-x="423" d="M-18 1661q0 41 25.5 67.5t66.5 26.5q39 0 66.5 -26.5t27.5 -67.5q0 -39 -27.5 -66.5t-66.5 -27.5q-41 0 -66.5 27.5t-25.5 66.5zM82 0v1473h256v-1473h-256zM264 1661q0 41 28 67.5t64 26.5q41 0 67 -26.5t26 -67.5q0 -39 -26 -66.5t-67 -27.5q-37 0 -64.5 27.5 t-27.5 66.5z" />
<glyph unicode="&#xf0;" horiz-adv-x="1298" d="M82 0v1473h422q164 0 300 -53.5t234.5 -148.5t152.5 -227.5t54 -291.5q0 -160 -55 -297.5t-153.5 -238.5t-234.5 -158.5t-298 -57.5h-422zM338 256h166q109 0 199 36t153.5 99.5t98 150.5t34.5 189q0 104 -35.5 193.5t-100.5 154t-154 101.5t-195 37h-166v-343h344v-256 h-344v-362z" />
<glyph unicode="&#xf1;" horiz-adv-x="1390" d="M82 0v1343q0 59 31.5 94.5t91.5 35.5q39 0 72.5 -16.5t66.5 -59.5l719 -946v1022h246v-1346q0 -141 -97 -141q-47 0 -82.5 21.5t-80.5 66.5l-721 948v-1022h-246zM447 1616q31 57 68.5 81.5t84.5 24.5q37 0 60.5 -8t43 -19.5t38 -19.5t45.5 -8q59 0 92 70l63 -74 q-37 -98 -149 -98q-29 0 -50.5 9t-42 20.5t-41 20.5t-42.5 9q-25 0 -49.5 -15.5t-49.5 -54.5z" />
<glyph unicode="&#xf2;" d="M59 752q0 297 181 495q205 225 561 226h43q356 0 559 -224q182 -201 182 -497q0 -301 -188 -516q-209 -236 -553 -236h-43q-344 0 -553 236q-188 215 -189 516zM313 731q0 -195 121 -328q135 -147 367 -147h43q231 0 364 147q123 133 123 328q0 213 -137 349.5 t-350 136.5h-43q-213 0 -350.5 -137.5t-137.5 -348.5zM697 1739h139l113 -199h-78z" />
<glyph unicode="&#xf3;" d="M59 752q0 297 181 495q205 225 561 226h43q356 0 559 -224q182 -201 182 -497q0 -301 -188 -516q-209 -236 -553 -236h-43q-344 0 -553 236q-188 215 -189 516zM313 731q0 -195 121 -328q135 -147 367 -147h43q231 0 364 147q123 133 123 328q0 213 -137 349.5 t-350 136.5h-43q-213 0 -350.5 -137.5t-137.5 -348.5zM696 1544l113 199h139l-174 -199h-78z" />
<glyph unicode="&#xf4;" d="M59 752q0 297 181 495q205 225 561 226h43q356 0 559 -224q182 -201 182 -497q0 -301 -188 -516q-209 -236 -553 -236h-43q-344 0 -553 236q-188 215 -189 516zM313 731q0 -195 121 -328q135 -147 367 -147h43q231 0 364 147q123 133 123 328q0 213 -137 349.5 t-350 136.5h-43q-213 0 -350.5 -137.5t-137.5 -348.5zM594 1563l166 196h121l170 -196h-129l-101 133l-100 -133h-127z" />
<glyph unicode="&#xf5;" d="M59 752q0 297 181 495q205 225 561 226h43q356 0 559 -224q182 -201 182 -497q0 -301 -188 -516q-209 -236 -553 -236h-43q-344 0 -553 236q-188 215 -189 516zM313 731q0 -195 121 -328q135 -147 367 -147h43q231 0 364 147q123 133 123 328q0 213 -137 349.5 t-350 136.5h-43q-213 0 -350.5 -137.5t-137.5 -348.5zM574 1616q31 57 68.5 81.5t84.5 24.5q37 0 60.5 -8t43 -19.5t38 -19.5t45.5 -8q59 0 92 70l63 -74q-37 -98 -149 -98q-29 0 -50.5 9t-42 20.5t-41 20.5t-42.5 9q-25 0 -49.5 -15.5t-49.5 -54.5z" />
<glyph unicode="&#xf6;" d="M59 752q0 297 181 495q205 225 561 226h43q356 0 559 -224q182 -201 182 -497q0 -301 -188 -516q-209 -236 -553 -236h-43q-344 0 -553 236q-188 215 -189 516zM313 731q0 -195 121 -328q135 -147 367 -147h43q231 0 364 147q123 133 123 328q0 213 -137 349.5 t-350 136.5h-43q-213 0 -350.5 -137.5t-137.5 -348.5zM588 1659q0 41 25.5 67.5t66.5 26.5q39 0 66.5 -26.5t27.5 -67.5q0 -39 -27.5 -66.5t-66.5 -27.5q-41 0 -66.5 27.5t-25.5 66.5zM870 1659q0 41 28 67.5t64 26.5q41 0 67 -26.5t26 -67.5q0 -39 -26 -66.5t-67 -27.5 q-37 0 -64.5 27.5t-27.5 66.5z" />
<glyph unicode="&#xf8;" d="M59 752q0 297 181 495q205 225 561 226h43q141 0 260 -37l18 37h119l-37 -76q113 -53 199 -148q182 -201 182 -497q0 -301 -188 -516q-209 -236 -553 -236h-43q-135 0 -250 35l-19 -37h-129l39 82q-109 57 -194 156q-188 215 -189 516zM313 731q0 -195 121 -328 q53 -59 121 -94l432 889q-66 18 -143 19h-43q-213 0 -350.5 -137.5t-137.5 -348.5zM664 270q63 -14 137 -14h43q231 0 364 147q123 133 123 328q0 213 -137 348q-47 47 -104 78z" />
<glyph unicode="&#xf9;" horiz-adv-x="1320" d="M72 664v809h256v-809q0 -115 17 -193t54 -126t95.5 -68.5t140.5 -20.5h49q80 0 138.5 21.5t96 68.5t55 125t17.5 193v809h256v-809q0 -317 -148.5 -490.5t-414.5 -173.5h-49q-268 0 -415.5 172t-147.5 492zM535 1739h139l113 -199h-78z" />
<glyph unicode="&#xfa;" horiz-adv-x="1320" d="M72 664v809h256v-809q0 -115 17 -193t54 -126t95.5 -68.5t140.5 -20.5h49q80 0 138.5 21.5t96 68.5t55 125t17.5 193v809h256v-809q0 -317 -148.5 -490.5t-414.5 -173.5h-49q-268 0 -415.5 172t-147.5 492zM534 1544l113 199h139l-174 -199h-78z" />
<glyph unicode="&#xfb;" horiz-adv-x="1320" d="M72 664v809h256v-809q0 -115 17 -193t54 -126t95.5 -68.5t140.5 -20.5h49q80 0 138.5 21.5t96 68.5t55 125t17.5 193v809h256v-809q0 -317 -148.5 -490.5t-414.5 -173.5h-49q-268 0 -415.5 172t-147.5 492zM432 1563l166 196h121l170 -196h-129l-101 133l-100 -133h-127z " />
<glyph unicode="&#xfc;" horiz-adv-x="1320" d="M72 664v809h256v-809q0 -115 17 -193t54 -126t95.5 -68.5t140.5 -20.5h49q80 0 138.5 21.5t96 68.5t55 125t17.5 193v809h256v-809q0 -317 -148.5 -490.5t-414.5 -173.5h-49q-268 0 -415.5 172t-147.5 492zM426 1659q0 41 25.5 67.5t66.5 26.5q39 0 66.5 -26.5 t27.5 -67.5q0 -39 -27.5 -66.5t-66.5 -27.5q-41 0 -66.5 27.5t-25.5 66.5zM708 1659q0 41 28 67.5t64 26.5q41 0 67 -26.5t26 -67.5q0 -39 -26 -66.5t-67 -27.5q-37 0 -64.5 27.5t-27.5 66.5z" />
<glyph unicode="&#xfd;" horiz-adv-x="1269" d="M47 1085v388h256v-388q0 -115 17.5 -192.5t54.5 -125.5t95 -68.5t140 -20.5h49q80 0 138.5 21.5t96.5 68.5t55.5 125t17.5 192v388h256v-388q0 -287 -122 -455.5t-341 -201.5v-428h-256v430q-219 33 -338 201t-119 454zM507 1544l113 199h139l-174 -199h-78z" />
<glyph unicode="&#xfe;" horiz-adv-x="1134" d="M82 0v1473h256v-197h231q127 0 227.5 -40t171 -111.5t107.5 -169t37 -210.5t-38 -210t-108.5 -167.5t-171 -110.5t-225.5 -40h-231v-217h-256zM338 473h225q68 0 123 20.5t95 57.5t61.5 87t21.5 110q0 57 -21.5 107t-60.5 87t-95 57.5t-124 20.5h-225v-547z" />
<glyph unicode="&#xff;" horiz-adv-x="1269" d="M47 1085v388h256v-388q0 -115 17.5 -192.5t54.5 -125.5t95 -68.5t140 -20.5h49q80 0 138.5 21.5t96.5 68.5t55.5 125t17.5 192v388h256v-388q0 -287 -122 -455.5t-341 -201.5v-428h-256v430q-219 33 -338 201t-119 454zM402 1659q0 41 25.5 67.5t66.5 26.5 q39 0 66.5 -26.5t27.5 -67.5q0 -39 -27.5 -66.5t-66.5 -27.5q-41 0 -66.5 27.5t-25.5 66.5zM684 1659q0 41 28 67.5t64 26.5q41 0 67 -26.5t26 -67.5q0 -39 -26 -66.5t-67 -27.5q-37 0 -64.5 27.5t-27.5 66.5z" />
<glyph unicode="&#x152;" horiz-adv-x="2123" d="M63 752q0 297 181 495q205 225 561 226h43q293 0 481 -152v152h719v-256h-463v-343h397v-256h-397v-362h473v-256h-729v164q-195 -164 -481 -164h-43q-344 0 -553 236q-188 215 -189 516zM317 731q0 -195 121 -328q135 -147 367 -147h43q231 0 364 147q123 133 123 328 q0 213 -137 349.5t-350 136.5h-43q-213 0 -350.5 -137.5t-137.5 -348.5z" />
<glyph unicode="&#x153;" horiz-adv-x="2123" d="M63 752q0 297 181 495q205 225 561 226h43q293 0 481 -152v152h719v-256h-463v-343h397v-256h-397v-362h473v-256h-729v164q-195 -164 -481 -164h-43q-344 0 -553 236q-188 215 -189 516zM317 731q0 -195 121 -328q135 -147 367 -147h43q231 0 364 147q123 133 123 328 q0 213 -137 349.5t-350 136.5h-43q-213 0 -350.5 -137.5t-137.5 -348.5z" />
<glyph unicode="&#x178;" horiz-adv-x="1269" d="M47 1085v388h256v-388q0 -115 17.5 -192.5t54.5 -125.5t95 -68.5t140 -20.5h49q80 0 138.5 21.5t96.5 68.5t55.5 125t17.5 192v388h256v-388q0 -287 -122 -455.5t-341 -201.5v-428h-256v430q-219 33 -338 201t-119 454zM402 1661q0 41 25.5 67.5t66.5 26.5 q39 0 66.5 -26.5t27.5 -67.5q0 -39 -27.5 -66.5t-66.5 -27.5q-41 0 -66.5 27.5t-25.5 66.5zM684 1661q0 41 28 67.5t64 26.5q41 0 67 -26.5t26 -67.5q0 -39 -26 -66.5t-67 -27.5q-37 0 -64.5 27.5t-27.5 66.5z" />
<glyph unicode="&#x2c6;" horiz-adv-x="552" d="M47 1563l166 196h121l170 -196h-129l-101 133l-100 -133h-127z" />
<glyph unicode="&#x2dc;" horiz-adv-x="641" d="M72 1616q31 57 68.5 81.5t84.5 24.5q37 0 60.5 -8t43 -19.5t38 -19.5t45.5 -8q59 0 92 70l63 -74q-37 -98 -149 -98q-29 0 -50.5 9t-42 20.5t-41 20.5t-42.5 9q-25 0 -49.5 -15.5t-49.5 -54.5z" />
<glyph unicode="&#x2000;" horiz-adv-x="905" />
<glyph unicode="&#x2001;" horiz-adv-x="1810" />
<glyph unicode="&#x2002;" horiz-adv-x="905" />
<glyph unicode="&#x2003;" horiz-adv-x="1810" />
<glyph unicode="&#x2004;" horiz-adv-x="603" />
<glyph unicode="&#x2005;" horiz-adv-x="452" />
<glyph unicode="&#x2006;" horiz-adv-x="301" />
<glyph unicode="&#x2007;" horiz-adv-x="301" />
<glyph unicode="&#x2008;" horiz-adv-x="226" />
<glyph unicode="&#x2009;" horiz-adv-x="362" />
<glyph unicode="&#x200a;" horiz-adv-x="100" />
<glyph unicode="&#x2010;" horiz-adv-x="966" d="M82 618v256h801v-256h-801z" />
<glyph unicode="&#x2011;" horiz-adv-x="966" d="M82 618v256h801v-256h-801z" />
<glyph unicode="&#x2012;" horiz-adv-x="966" d="M82 618v256h801v-256h-801z" />
<glyph unicode="&#x2013;" horiz-adv-x="1306" d="M82 618v256h1149v-256h-1149z" />
<glyph unicode="&#x2014;" horiz-adv-x="1687" d="M82 618v256h1528v-256h-1528z" />
<glyph unicode="&#x2018;" horiz-adv-x="407" d="M29 1577h256l61 -451h-174z" />
<glyph unicode="&#x2019;" horiz-adv-x="407" d="M57 1126l62 451h256l-144 -451h-174z" />
<glyph unicode="&#x201a;" horiz-adv-x="407" d="M57 -129l62 451h256l-144 -451h-174z" />
<glyph unicode="&#x201c;" horiz-adv-x="804" d="M55 1577h256l62 -451h-174zM416 1577h256l61 -451h-174z" />
<glyph unicode="&#x201d;" horiz-adv-x="802" d="M70 1126l61 451h256l-143 -451h-174zM430 1126l62 451h256l-144 -451h-174z" />
<glyph unicode="&#x201e;" horiz-adv-x="802" d="M70 -129l61 451h256l-143 -451h-174zM430 -129l62 451h256l-144 -451h-174z" />
<glyph unicode="&#x2022;" horiz-adv-x="1085" d="M283 741q0 51 19.5 95.5t52 77t76.5 52t95 19.5t95.5 -19.5t77 -52t52 -76.5t19.5 -96q0 -51 -19.5 -95t-52 -76.5t-76.5 -52t-96 -19.5q-51 0 -95 19.5t-76.5 52t-52 76.5t-19.5 95z" />
<glyph unicode="&#x2026;" horiz-adv-x="2297" d="M80 125q0 61 39 95t92 34t92 -34t39 -95t-39 -96t-92 -35t-92 34.5t-39 96.5zM1018 125q0 61 39 95t92 34t92 -34t39 -95t-39 -96t-92 -35t-92 34.5t-39 96.5zM1956 125q0 61 39 95t92 34t92 -34t39 -95t-39 -96t-92 -35t-92 34.5t-39 96.5z" />
<glyph unicode="&#x202f;" horiz-adv-x="362" />
<glyph unicode="&#x205f;" horiz-adv-x="452" />
<glyph unicode="&#x20ac;" horiz-adv-x="1118" d="M33 582l45 131h51v39v28.5t2 28.5h-98l45 133h72q29 119 92 217t156.5 168t213 108t258.5 38h183l-78 -256h-105q-154 0 -270.5 -75t-173.5 -200h465l-41 -133h-463q-4 -20 -4 -38.5v-39.5v-18h436l-39 -131h-377q20 -74 63.5 -134.5t104 -102.5t136 -65.5t163.5 -23.5 h62l53 -256h-115q-141 0 -262 43t-214 121t-157.5 184.5t-91.5 233.5h-112z" />
<glyph unicode="&#x2122;" horiz-adv-x="1148" d="M88 1362v111h408v-111h-142v-459h-121v459h-145zM547 905v568h137l109 -293l106 293h133v-568h-114v312l-123 -316l-136 328v-324h-112z" />
<glyph unicode="&#x25fc;" horiz-adv-x="1474" d="M0 0v1475h1475v-1475h-1475z" />
</font>
</defs>
</svg>
